<svg width="581" height="523" viewBox="0 0 581 523" fill="none" xmlns="http://www.w3.org/2000/svg">
<g filter="url(#filter0_f_103_10)">
<ellipse cx="290.5" cy="467" rx="261.5" ry="27" fill="#010101"/>
</g>
<rect x="56" width="466" height="466" rx="79" fill="url(#paint0_linear_103_10)"/>
<g filter="url(#filter1_f_103_10)">
<path d="M467 49L232.952 49L111 49" stroke="#692727" stroke-width="9" stroke-linecap="round"/>
</g>
<g filter="url(#filter2_f_103_10)">
<path d="M111 392V166.498L111 49" stroke="white" stroke-width="13" stroke-linecap="round"/>
</g>
<g filter="url(#filter3_f_103_10)">
<path d="M467 392V166.498V49" stroke="white" stroke-width="13" stroke-linecap="round"/>
</g>
<g filter="url(#filter4_i_103_10)">
<path d="M309 218H409L404.299 247.944L394.332 320.011L389.769 353H309V320.011H369.671L379.5 247.944H309V218Z" fill="url(#paint1_linear_103_10)"/>
<path d="M309 113H408.5L390.5 142H309V113Z" fill="url(#paint2_linear_103_10)"/>
<path d="M334.5 142H309V218H334.5V180.5V142Z" fill="url(#paint3_linear_103_10)"/>
</g>
<path d="M309 218H409L404.299 247.944M309 218V247.944H379.5M309 218H334.5V180.5V142H309M309 218V142M404.299 247.944L394.332 320.011M404.299 247.944H379.5M394.332 320.011L389.769 353H309V320.011H369.671M394.332 320.011H369.671M379.5 247.944L369.671 320.011M309 142V113H408.5L390.5 142H309Z" stroke="url(#paint4_linear_103_10)" stroke-width="9" stroke-linecap="round"/>
<g filter="url(#filter5_i_103_10)">
<path d="M205 113H173V353H205V113Z" fill="url(#paint5_linear_103_10)"/>
<path d="M300 113H268V353H300V113Z" fill="url(#paint6_linear_103_10)"/>
<path d="M282 218H190L183 231.5L190 248H282L290 231.5L282 218Z" fill="url(#paint7_linear_103_10)"/>
</g>
<path d="M205 113H173V353H205V113Z" stroke="url(#paint8_linear_103_10)" stroke-width="9" stroke-linecap="round"/>
<path d="M300 113H268V353H300V113Z" stroke="url(#paint9_linear_103_10)" stroke-width="9" stroke-linecap="round"/>
<path d="M282 218H190L183 231.5L190 248H282L290 231.5L282 218Z" stroke="url(#paint10_linear_103_10)" stroke-width="9" stroke-linecap="round"/>
<defs>
<filter id="filter0_f_103_10" x="0.200001" y="411.2" width="580.6" height="111.6" filterUnits="userSpaceOnUse" color-interpolation-filters="sRGB">
<feFlood flood-opacity="0" result="BackgroundImageFix"/>
<feBlend mode="normal" in="SourceGraphic" in2="BackgroundImageFix" result="shape"/>
<feGaussianBlur stdDeviation="14.4" result="effect1_foregroundBlur_103_10"/>
</filter>
<filter id="filter1_f_103_10" x="79.5" y="17.5" width="419" height="63" filterUnits="userSpaceOnUse" color-interpolation-filters="sRGB">
<feFlood flood-opacity="0" result="BackgroundImageFix"/>
<feBlend mode="normal" in="SourceGraphic" in2="BackgroundImageFix" result="shape"/>
<feGaussianBlur stdDeviation="13.5" result="effect1_foregroundBlur_103_10"/>
</filter>
<filter id="filter2_f_103_10" x="77.5" y="15.5" width="67" height="410" filterUnits="userSpaceOnUse" color-interpolation-filters="sRGB">
<feFlood flood-opacity="0" result="BackgroundImageFix"/>
<feBlend mode="normal" in="SourceGraphic" in2="BackgroundImageFix" result="shape"/>
<feGaussianBlur stdDeviation="13.5" result="effect1_foregroundBlur_103_10"/>
</filter>
<filter id="filter3_f_103_10" x="433.5" y="15.5" width="67" height="410" filterUnits="userSpaceOnUse" color-interpolation-filters="sRGB">
<feFlood flood-opacity="0" result="BackgroundImageFix"/>
<feBlend mode="normal" in="SourceGraphic" in2="BackgroundImageFix" result="shape"/>
<feGaussianBlur stdDeviation="13.5" result="effect1_foregroundBlur_103_10"/>
</filter>
<filter id="filter4_i_103_10" x="304.5" y="108.5" width="122.089" height="259" filterUnits="userSpaceOnUse" color-interpolation-filters="sRGB">
<feFlood flood-opacity="0" result="BackgroundImageFix"/>
<feBlend mode="normal" in="SourceGraphic" in2="BackgroundImageFix" result="shape"/>
<feColorMatrix in="SourceAlpha" type="matrix" values="0 0 0 0 0 0 0 0 0 0 0 0 0 0 0 0 0 0 127 0" result="hardAlpha"/>
<feOffset dx="10" dy="10"/>
<feGaussianBlur stdDeviation="5"/>
<feComposite in2="hardAlpha" operator="arithmetic" k2="-1" k3="1"/>
<feColorMatrix type="matrix" values="0 0 0 0 0 0 0 0 0 0 0 0 0 0 0 0 0 0 0.6 0"/>
<feBlend mode="normal" in2="shape" result="effect1_innerShadow_103_10"/>
</filter>
<filter id="filter5_i_103_10" x="168.5" y="108.5" width="146" height="259" filterUnits="userSpaceOnUse" color-interpolation-filters="sRGB">
<feFlood flood-opacity="0" result="BackgroundImageFix"/>
<feBlend mode="normal" in="SourceGraphic" in2="BackgroundImageFix" result="shape"/>
<feColorMatrix in="SourceAlpha" type="matrix" values="0 0 0 0 0 0 0 0 0 0 0 0 0 0 0 0 0 0 127 0" result="hardAlpha"/>
<feOffset dx="10" dy="10"/>
<feGaussianBlur stdDeviation="5"/>
<feComposite in2="hardAlpha" operator="arithmetic" k2="-1" k3="1"/>
<feColorMatrix type="matrix" values="0 0 0 0 0 0 0 0 0 0 0 0 0 0 0 0 0 0 0.6 0"/>
<feBlend mode="normal" in2="shape" result="effect1_innerShadow_103_10"/>
</filter>
<linearGradient id="paint0_linear_103_10" x1="289" y1="0" x2="289" y2="466" gradientUnits="userSpaceOnUse">
<stop stop-color="#325E5B"/>
<stop offset="1" stop-color="#03191B"/>
</linearGradient>
<linearGradient id="paint1_linear_103_10" x1="359" y1="113" x2="359" y2="353" gradientUnits="userSpaceOnUse">
<stop stop-color="#AFAFAF"/>
<stop offset="1" stop-color="#B7B7B7"/>
</linearGradient>
<linearGradient id="paint2_linear_103_10" x1="359" y1="113" x2="359" y2="353" gradientUnits="userSpaceOnUse">
<stop stop-color="#AFAFAF"/>
<stop offset="1" stop-color="#B7B7B7"/>
</linearGradient>
<linearGradient id="paint3_linear_103_10" x1="359" y1="113" x2="359" y2="353" gradientUnits="userSpaceOnUse">
<stop stop-color="#AFAFAF"/>
<stop offset="1" stop-color="#B7B7B7"/>
</linearGradient>
<linearGradient id="paint4_linear_103_10" x1="359" y1="113" x2="359" y2="353" gradientUnits="userSpaceOnUse">
<stop stop-color="#2F2F2F"/>
<stop offset="1" stop-color="#BCBCBC" stop-opacity="0"/>
</linearGradient>
<linearGradient id="paint5_linear_103_10" x1="236.5" y1="113" x2="236.5" y2="353" gradientUnits="userSpaceOnUse">
<stop stop-color="#AFAFAF"/>
<stop offset="1" stop-color="#B7B7B7"/>
</linearGradient>
<linearGradient id="paint6_linear_103_10" x1="236.5" y1="113" x2="236.5" y2="353" gradientUnits="userSpaceOnUse">
<stop stop-color="#AFAFAF"/>
<stop offset="1" stop-color="#B7B7B7"/>
</linearGradient>
<linearGradient id="paint7_linear_103_10" x1="236.5" y1="113" x2="236.5" y2="353" gradientUnits="userSpaceOnUse">
<stop stop-color="#AFAFAF"/>
<stop offset="1" stop-color="#B7B7B7"/>
</linearGradient>
<linearGradient id="paint8_linear_103_10" x1="236.5" y1="113" x2="236.5" y2="353" gradientUnits="userSpaceOnUse">
<stop stop-color="#2F2F2F"/>
<stop offset="1" stop-color="#BCBCBC" stop-opacity="0"/>
</linearGradient>
<linearGradient id="paint9_linear_103_10" x1="236.5" y1="113" x2="236.5" y2="353" gradientUnits="userSpaceOnUse">
<stop stop-color="#2F2F2F"/>
<stop offset="1" stop-color="#BCBCBC" stop-opacity="0"/>
</linearGradient>
<linearGradient id="paint10_linear_103_10" x1="236.5" y1="113" x2="236.5" y2="353" gradientUnits="userSpaceOnUse">
<stop stop-color="#2F2F2F"/>
<stop offset="1" stop-color="#BCBCBC" stop-opacity="0"/>
</linearGradient>
</defs>
</svg>
