<svg width="1000" height="1000" viewBox="0 0 1000 1000" fill="none" xmlns="http://www.w3.org/2000/svg">
<g clip-path="url(#clip0_101_2)">
<rect width="1000" height="1000" fill="url(#paint0_linear_101_2)"/>
<g filter="url(#filter0_f_101_2)">
<ellipse cx="499.5" cy="647" rx="261.5" ry="27" fill="#010101"/>
</g>
<rect x="265" y="180" width="466" height="466" rx="79" fill="url(#paint1_linear_101_2)"/>
<g filter="url(#filter1_f_101_2)">
<path d="M676 229L441.952 229L320 229" stroke="#692727" stroke-width="9" stroke-linecap="round"/>
</g>
<g filter="url(#filter2_f_101_2)">
<path d="M320 572V346.498V229" stroke="white" stroke-width="13" stroke-linecap="round"/>
</g>
<g filter="url(#filter3_f_101_2)">
<path d="M676 572V346.498V229" stroke="white" stroke-width="13" stroke-linecap="round"/>
</g>
<g filter="url(#filter4_i_101_2)">
<path d="M518 398H618L613.299 427.944L603.332 500.011L598.769 533H518V500.011H578.671L588.5 427.944H518V398Z" fill="url(#paint2_linear_101_2)"/>
<path d="M518 293H617.5L599.5 322H518V293Z" fill="url(#paint3_linear_101_2)"/>
<path d="M543.5 322H518V398H543.5V360.5V322Z" fill="url(#paint4_linear_101_2)"/>
</g>
<path d="M518 398H618L613.299 427.944M518 398V427.944H588.5M518 398H543.5V360.5V322H518M518 398V322M613.299 427.944L603.332 500.011M613.299 427.944H588.5M603.332 500.011L598.769 533H518V500.011H578.671M603.332 500.011H578.671M588.5 427.944L578.671 500.011M518 322V293H617.5L599.5 322H518Z" stroke="url(#paint5_linear_101_2)" stroke-width="9" stroke-linecap="round"/>
<g filter="url(#filter5_i_101_2)">
<path d="M414 293H382V533H414V293Z" fill="url(#paint6_linear_101_2)"/>
<path d="M509 293H477V533H509V293Z" fill="url(#paint7_linear_101_2)"/>
<path d="M491 398H399L392 411.5L399 428H491L499 411.5L491 398Z" fill="url(#paint8_linear_101_2)"/>
</g>
<path d="M414 293H382V533H414V293Z" stroke="url(#paint9_linear_101_2)" stroke-width="9" stroke-linecap="round"/>
<path d="M509 293H477V533H509V293Z" stroke="url(#paint10_linear_101_2)" stroke-width="9" stroke-linecap="round"/>
<path d="M491 398H399L392 411.5L399 428H491L499 411.5L491 398Z" stroke="url(#paint11_linear_101_2)" stroke-width="9" stroke-linecap="round"/>
<rect x="733" y="1113" width="466" height="466" rx="79" transform="rotate(180 733 1113)" fill="url(#paint12_linear_101_2)" fill-opacity="0.2"/>
<g filter="url(#filter6_f_101_2)">
<path d="M322 721V946.502V1064" stroke="white" stroke-opacity="0.2" stroke-width="13" stroke-linecap="round"/>
</g>
<g filter="url(#filter7_f_101_2)">
<path d="M678 721V946.502V1064" stroke="white" stroke-opacity="0.2" stroke-width="13" stroke-linecap="round"/>
</g>
<g opacity="0.3">
<g filter="url(#filter8_i_101_2)">
<path d="M520 895H620L615.299 865.056L605.332 792.989L600.769 760H520V792.989H580.671L590.5 865.056H520V895Z" fill="url(#paint13_linear_101_2)" fill-opacity="0.5"/>
<path d="M520 1000H619.5L601.5 971H520V1000Z" fill="url(#paint14_linear_101_2)" fill-opacity="0.5"/>
<path d="M545.5 971H520V895H545.5V932.5V971Z" fill="url(#paint15_linear_101_2)" fill-opacity="0.5"/>
</g>
<path d="M520 895H620L615.299 865.056M520 895V865.056H590.5M520 895H545.5V932.5V971H520M520 895V971M615.299 865.056L605.332 792.989M615.299 865.056H590.5M605.332 792.989L600.769 760H520V792.989H580.671M605.332 792.989H580.671M590.5 865.056L580.671 792.989M520 971V1000H619.5L601.5 971H520Z" stroke="url(#paint16_linear_101_2)" stroke-opacity="0.5" stroke-width="9" stroke-linecap="round"/>
</g>
<g opacity="0.3">
<g filter="url(#filter9_i_101_2)">
<path d="M416 1000H384V760H416V1000Z" fill="url(#paint17_linear_101_2)" fill-opacity="0.5"/>
<path d="M511 1000H479V760H511V1000Z" fill="url(#paint18_linear_101_2)" fill-opacity="0.5"/>
<path d="M493 895H401L394 881.5L401 865H493L501 881.5L493 895Z" fill="url(#paint19_linear_101_2)" fill-opacity="0.5"/>
</g>
<path d="M416 1000H384V760H416V1000Z" stroke="url(#paint20_linear_101_2)" stroke-opacity="0.5" stroke-width="9" stroke-linecap="round"/>
<path d="M511 1000H479V760H511V1000Z" stroke="url(#paint21_linear_101_2)" stroke-opacity="0.5" stroke-width="9" stroke-linecap="round"/>
<path d="M493 895H401L394 881.5L401 865H493L501 881.5L493 895Z" stroke="url(#paint22_linear_101_2)" stroke-opacity="0.5" stroke-width="9" stroke-linecap="round"/>
</g>
<g filter="url(#filter10_f_101_2)">
<path d="M687 717L452.952 717L331 717" stroke="white" stroke-opacity="0.5" stroke-width="9" stroke-linecap="round"/>
</g>
</g>
<defs>
<filter id="filter0_f_101_2" x="209.2" y="591.2" width="580.6" height="111.6" filterUnits="userSpaceOnUse" color-interpolation-filters="sRGB">
<feFlood flood-opacity="0" result="BackgroundImageFix"/>
<feBlend mode="normal" in="SourceGraphic" in2="BackgroundImageFix" result="shape"/>
<feGaussianBlur stdDeviation="14.4" result="effect1_foregroundBlur_101_2"/>
</filter>
<filter id="filter1_f_101_2" x="288.5" y="197.5" width="419" height="63" filterUnits="userSpaceOnUse" color-interpolation-filters="sRGB">
<feFlood flood-opacity="0" result="BackgroundImageFix"/>
<feBlend mode="normal" in="SourceGraphic" in2="BackgroundImageFix" result="shape"/>
<feGaussianBlur stdDeviation="13.5" result="effect1_foregroundBlur_101_2"/>
</filter>
<filter id="filter2_f_101_2" x="286.5" y="195.5" width="67" height="410" filterUnits="userSpaceOnUse" color-interpolation-filters="sRGB">
<feFlood flood-opacity="0" result="BackgroundImageFix"/>
<feBlend mode="normal" in="SourceGraphic" in2="BackgroundImageFix" result="shape"/>
<feGaussianBlur stdDeviation="13.5" result="effect1_foregroundBlur_101_2"/>
</filter>
<filter id="filter3_f_101_2" x="642.5" y="195.5" width="67" height="410" filterUnits="userSpaceOnUse" color-interpolation-filters="sRGB">
<feFlood flood-opacity="0" result="BackgroundImageFix"/>
<feBlend mode="normal" in="SourceGraphic" in2="BackgroundImageFix" result="shape"/>
<feGaussianBlur stdDeviation="13.5" result="effect1_foregroundBlur_101_2"/>
</filter>
<filter id="filter4_i_101_2" x="513.5" y="288.5" width="122.089" height="259" filterUnits="userSpaceOnUse" color-interpolation-filters="sRGB">
<feFlood flood-opacity="0" result="BackgroundImageFix"/>
<feBlend mode="normal" in="SourceGraphic" in2="BackgroundImageFix" result="shape"/>
<feColorMatrix in="SourceAlpha" type="matrix" values="0 0 0 0 0 0 0 0 0 0 0 0 0 0 0 0 0 0 127 0" result="hardAlpha"/>
<feOffset dx="10" dy="10"/>
<feGaussianBlur stdDeviation="5"/>
<feComposite in2="hardAlpha" operator="arithmetic" k2="-1" k3="1"/>
<feColorMatrix type="matrix" values="0 0 0 0 0 0 0 0 0 0 0 0 0 0 0 0 0 0 0.6 0"/>
<feBlend mode="normal" in2="shape" result="effect1_innerShadow_101_2"/>
</filter>
<filter id="filter5_i_101_2" x="377.5" y="288.5" width="146" height="259" filterUnits="userSpaceOnUse" color-interpolation-filters="sRGB">
<feFlood flood-opacity="0" result="BackgroundImageFix"/>
<feBlend mode="normal" in="SourceGraphic" in2="BackgroundImageFix" result="shape"/>
<feColorMatrix in="SourceAlpha" type="matrix" values="0 0 0 0 0 0 0 0 0 0 0 0 0 0 0 0 0 0 127 0" result="hardAlpha"/>
<feOffset dx="10" dy="10"/>
<feGaussianBlur stdDeviation="5"/>
<feComposite in2="hardAlpha" operator="arithmetic" k2="-1" k3="1"/>
<feColorMatrix type="matrix" values="0 0 0 0 0 0 0 0 0 0 0 0 0 0 0 0 0 0 0.6 0"/>
<feBlend mode="normal" in2="shape" result="effect1_innerShadow_101_2"/>
</filter>
<filter id="filter6_f_101_2" x="288.5" y="687.5" width="67" height="410" filterUnits="userSpaceOnUse" color-interpolation-filters="sRGB">
<feFlood flood-opacity="0" result="BackgroundImageFix"/>
<feBlend mode="normal" in="SourceGraphic" in2="BackgroundImageFix" result="shape"/>
<feGaussianBlur stdDeviation="13.5" result="effect1_foregroundBlur_101_2"/>
</filter>
<filter id="filter7_f_101_2" x="644.5" y="687.5" width="67" height="410" filterUnits="userSpaceOnUse" color-interpolation-filters="sRGB">
<feFlood flood-opacity="0" result="BackgroundImageFix"/>
<feBlend mode="normal" in="SourceGraphic" in2="BackgroundImageFix" result="shape"/>
<feGaussianBlur stdDeviation="13.5" result="effect1_foregroundBlur_101_2"/>
</filter>
<filter id="filter8_i_101_2" x="515.5" y="755.5" width="122.089" height="259" filterUnits="userSpaceOnUse" color-interpolation-filters="sRGB">
<feFlood flood-opacity="0" result="BackgroundImageFix"/>
<feBlend mode="normal" in="SourceGraphic" in2="BackgroundImageFix" result="shape"/>
<feColorMatrix in="SourceAlpha" type="matrix" values="0 0 0 0 0 0 0 0 0 0 0 0 0 0 0 0 0 0 127 0" result="hardAlpha"/>
<feOffset dx="10" dy="10"/>
<feGaussianBlur stdDeviation="5"/>
<feComposite in2="hardAlpha" operator="arithmetic" k2="-1" k3="1"/>
<feColorMatrix type="matrix" values="0 0 0 0 0 0 0 0 0 0 0 0 0 0 0 0 0 0 0.6 0"/>
<feBlend mode="normal" in2="shape" result="effect1_innerShadow_101_2"/>
</filter>
<filter id="filter9_i_101_2" x="379.5" y="755.5" width="146" height="259" filterUnits="userSpaceOnUse" color-interpolation-filters="sRGB">
<feFlood flood-opacity="0" result="BackgroundImageFix"/>
<feBlend mode="normal" in="SourceGraphic" in2="BackgroundImageFix" result="shape"/>
<feColorMatrix in="SourceAlpha" type="matrix" values="0 0 0 0 0 0 0 0 0 0 0 0 0 0 0 0 0 0 127 0" result="hardAlpha"/>
<feOffset dx="10" dy="10"/>
<feGaussianBlur stdDeviation="5"/>
<feComposite in2="hardAlpha" operator="arithmetic" k2="-1" k3="1"/>
<feColorMatrix type="matrix" values="0 0 0 0 0 0 0 0 0 0 0 0 0 0 0 0 0 0 0.6 0"/>
<feBlend mode="normal" in2="shape" result="effect1_innerShadow_101_2"/>
</filter>
<filter id="filter10_f_101_2" x="299.5" y="685.5" width="419" height="63.0001" filterUnits="userSpaceOnUse" color-interpolation-filters="sRGB">
<feFlood flood-opacity="0" result="BackgroundImageFix"/>
<feBlend mode="normal" in="SourceGraphic" in2="BackgroundImageFix" result="shape"/>
<feGaussianBlur stdDeviation="13.5" result="effect1_foregroundBlur_101_2"/>
</filter>
<linearGradient id="paint0_linear_101_2" x1="500" y1="0" x2="500" y2="1000" gradientUnits="userSpaceOnUse">
<stop stop-color="#898989"/>
<stop offset="1" stop-color="#DCDCDC" stop-opacity="0"/>
</linearGradient>
<linearGradient id="paint1_linear_101_2" x1="498" y1="180" x2="498" y2="646" gradientUnits="userSpaceOnUse">
<stop stop-color="#325E5B"/>
<stop offset="1" stop-color="#03191B"/>
</linearGradient>
<linearGradient id="paint2_linear_101_2" x1="568" y1="293" x2="568" y2="533" gradientUnits="userSpaceOnUse">
<stop stop-color="#010101"/>
<stop offset="1" stop-color="#B7B7B7"/>
</linearGradient>
<linearGradient id="paint3_linear_101_2" x1="568" y1="293" x2="568" y2="533" gradientUnits="userSpaceOnUse">
<stop stop-color="#010101"/>
<stop offset="1" stop-color="#B7B7B7"/>
</linearGradient>
<linearGradient id="paint4_linear_101_2" x1="568" y1="293" x2="568" y2="533" gradientUnits="userSpaceOnUse">
<stop stop-color="#010101"/>
<stop offset="1" stop-color="#B7B7B7"/>
</linearGradient>
<linearGradient id="paint5_linear_101_2" x1="568" y1="293" x2="568" y2="533" gradientUnits="userSpaceOnUse">
<stop stop-color="#646464"/>
<stop offset="1" stop-color="white" stop-opacity="0"/>
</linearGradient>
<linearGradient id="paint6_linear_101_2" x1="445.5" y1="293" x2="445.5" y2="533" gradientUnits="userSpaceOnUse">
<stop stop-color="#010101"/>
<stop offset="1" stop-color="#B7B7B7"/>
</linearGradient>
<linearGradient id="paint7_linear_101_2" x1="445.5" y1="293" x2="445.5" y2="533" gradientUnits="userSpaceOnUse">
<stop stop-color="#010101"/>
<stop offset="1" stop-color="#B7B7B7"/>
</linearGradient>
<linearGradient id="paint8_linear_101_2" x1="445.5" y1="293" x2="445.5" y2="533" gradientUnits="userSpaceOnUse">
<stop stop-color="#010101"/>
<stop offset="1" stop-color="#B7B7B7"/>
</linearGradient>
<linearGradient id="paint9_linear_101_2" x1="445.5" y1="293" x2="445.5" y2="533" gradientUnits="userSpaceOnUse">
<stop stop-color="#646464"/>
<stop offset="1" stop-color="white" stop-opacity="0"/>
</linearGradient>
<linearGradient id="paint10_linear_101_2" x1="445.5" y1="293" x2="445.5" y2="533" gradientUnits="userSpaceOnUse">
<stop stop-color="#646464"/>
<stop offset="1" stop-color="white" stop-opacity="0"/>
</linearGradient>
<linearGradient id="paint11_linear_101_2" x1="445.5" y1="293" x2="445.5" y2="533" gradientUnits="userSpaceOnUse">
<stop stop-color="#646464"/>
<stop offset="1" stop-color="white" stop-opacity="0"/>
</linearGradient>
<linearGradient id="paint12_linear_101_2" x1="966" y1="1113" x2="966" y2="1579" gradientUnits="userSpaceOnUse">
<stop stop-color="#586F7C" stop-opacity="0.4"/>
<stop offset="1" stop-color="#193C3F"/>
</linearGradient>
<linearGradient id="paint13_linear_101_2" x1="570" y1="1000" x2="570" y2="760" gradientUnits="userSpaceOnUse">
<stop stop-color="#010101"/>
<stop offset="1" stop-color="#B7B7B7"/>
</linearGradient>
<linearGradient id="paint14_linear_101_2" x1="570" y1="1000" x2="570" y2="760" gradientUnits="userSpaceOnUse">
<stop stop-color="#010101"/>
<stop offset="1" stop-color="#B7B7B7"/>
</linearGradient>
<linearGradient id="paint15_linear_101_2" x1="570" y1="1000" x2="570" y2="760" gradientUnits="userSpaceOnUse">
<stop stop-color="#010101"/>
<stop offset="1" stop-color="#B7B7B7"/>
</linearGradient>
<linearGradient id="paint16_linear_101_2" x1="570" y1="1000" x2="570" y2="760" gradientUnits="userSpaceOnUse">
<stop stop-color="#646464"/>
<stop offset="1" stop-color="white" stop-opacity="0"/>
</linearGradient>
<linearGradient id="paint17_linear_101_2" x1="447.5" y1="1000" x2="447.5" y2="760" gradientUnits="userSpaceOnUse">
<stop stop-color="#010101"/>
<stop offset="1" stop-color="#B7B7B7"/>
</linearGradient>
<linearGradient id="paint18_linear_101_2" x1="447.5" y1="1000" x2="447.5" y2="760" gradientUnits="userSpaceOnUse">
<stop stop-color="#010101"/>
<stop offset="1" stop-color="#B7B7B7"/>
</linearGradient>
<linearGradient id="paint19_linear_101_2" x1="447.5" y1="1000" x2="447.5" y2="760" gradientUnits="userSpaceOnUse">
<stop stop-color="#010101"/>
<stop offset="1" stop-color="#B7B7B7"/>
</linearGradient>
<linearGradient id="paint20_linear_101_2" x1="447.5" y1="1000" x2="447.5" y2="760" gradientUnits="userSpaceOnUse">
<stop stop-color="#646464"/>
<stop offset="1" stop-color="white" stop-opacity="0"/>
</linearGradient>
<linearGradient id="paint21_linear_101_2" x1="447.5" y1="1000" x2="447.5" y2="760" gradientUnits="userSpaceOnUse">
<stop stop-color="#646464"/>
<stop offset="1" stop-color="white" stop-opacity="0"/>
</linearGradient>
<linearGradient id="paint22_linear_101_2" x1="447.5" y1="1000" x2="447.5" y2="760" gradientUnits="userSpaceOnUse">
<stop stop-color="#646464"/>
<stop offset="1" stop-color="white" stop-opacity="0"/>
</linearGradient>
<clipPath id="clip0_101_2">
<rect width="1000" height="1000" fill="white"/>
</clipPath>
</defs>
</svg>
